<?xml version="1.0" standalone="no"?>
<!DOCTYPE svg PUBLIC "-//W3C//DTD SVG 20010904//EN"
 "http://www.w3.org/TR/2001/REC-SVG-20010904/DTD/svg10.dtd">
<svg version="1.0" xmlns="http://www.w3.org/2000/svg"
 width="160.000000pt" height="160.000000pt" viewBox="0 0 160.000000 160.000000"
 preserveAspectRatio="xMidYMid meet">
<metadata>
Created by potrace 1.14, written by Peter Selinger 2001-2017
</metadata>
<g transform="translate(0.000000,160.000000) scale(0.100000,-0.100000)"
fill="#000000" stroke="none">
<path d="M729 1526 c-2 -2 -23 -6 -47 -10 -73 -10 -162 -59 -225 -126 l-59
-61 -91 1 c-51 1 -131 1 -178 1 l-86 -1 0 -530 0 -530 149 0 c81 0 148 -2 148
-5 0 -3 -9 -18 -19 -33 -23 -31 -57 -130 -67 -190 l-6 -41 561 0 562 0 -5 27
c-3 15 -8 38 -11 52 -3 14 -8 36 -11 50 -8 36 -40 106 -53 114 -31 20 0 26
128 26 124 0 139 2 142 17 7 28 3 1032 -3 1038 -3 3 -78 6 -166 6 l-160 -1
-18 28 c-41 65 -119 118 -214 147 -48 15 -260 31 -271 21z"/>
</g>
</svg>
